<svg width="175" height="51" viewBox="0 0 175 51" fill="none" xmlns="http://www.w3.org/2000/svg">
<mask id="mask0" mask-type="alpha" maskUnits="userSpaceOnUse" x="0" y="2" width="47" height="49">
<path fill-rule="evenodd" clip-rule="evenodd" d="M0 2.05957H47V50.2166H0V2.05957Z" fill="white"/>
</mask>
<g mask="url(#mask0)">
<path fill-rule="evenodd" clip-rule="evenodd" d="M23.5006 50.2167C24.0844 50.2167 24.6635 50.1949 25.2373 50.1514L26.4615 46.1809C26.4615 46.1809 26.724 45.5665 27.0613 46.0666C27.3526 46.5141 28.7738 48.5616 29.3936 49.4535C30.3819 49.1917 31.352 48.864 32.2985 48.4715L32.233 44.3365C32.233 44.3365 32.3085 43.6441 32.7962 44.0293C33.2019 44.3855 35.1521 45.8676 36.0166 46.5219C36.9466 45.9214 37.8341 45.2557 38.6733 44.5282L37.3682 40.6466C37.3682 40.6466 37.2556 39.9554 37.8176 40.1858C38.3082 40.363 40.5757 41.1563 41.5929 41.5119C42.2782 40.6653 42.9068 39.7722 43.4735 38.8373L41.0781 35.3433C41.0781 35.3433 40.7785 34.7283 41.3783 34.8051C41.8955 34.8347 44.2838 34.9321 45.3718 34.9756C45.7604 33.9646 46.0806 32.9281 46.3313 31.8729L43.0271 29.5012C43.0271 29.5012 42.54 29.0017 43.102 28.8481C43.6233 28.6994 45.9303 27.9562 46.9552 27.6242C46.9847 27.1362 47 26.647 47 26.1578C47 25.6142 46.9811 25.0754 46.9463 24.5414C45.8908 24.2366 43.6162 23.5841 43.1026 23.4674C42.5406 23.3132 42.99 22.8137 42.99 22.8137L46.3012 20.3103C46.0488 19.2744 45.7292 18.2567 45.3441 17.2643C44.2449 17.3103 41.8913 17.4131 41.3789 17.4718C40.7791 17.5099 41.0787 16.8949 41.0787 16.8949L43.4523 13.4323C42.8915 12.5101 42.2711 11.6267 41.5941 10.7891C40.5881 11.1368 38.241 11.949 37.7427 12.1292C37.1813 12.3596 37.2934 11.6678 37.2934 11.6678L38.6214 7.72024C37.7964 7.00729 36.9242 6.3536 36.0119 5.76341C35.145 6.42798 33.2008 7.92161 32.7962 8.24755C32.3079 8.63154 32.233 7.93975 32.233 7.93975L32.2985 3.8108C31.355 3.41835 30.3872 3.08999 29.4012 2.82815C28.7661 3.74126 27.385 5.73136 27.099 6.17219C26.7617 6.70977 26.4615 6.09539 26.4615 6.09539L25.2815 2.12851C24.6889 2.08255 24.0944 2.05957 23.5006 2.05957C22.971 2.06018 22.4421 2.07892 21.9143 2.11581L20.7643 5.97929C20.7643 5.97929 20.4648 6.59488 20.1274 6.09479C19.845 5.63158 18.5222 3.68805 17.8854 2.75559C16.8534 3.0144 15.8396 3.34639 14.8519 3.74791L14.9173 7.90105C14.9173 7.90105 14.8053 8.55413 14.3553 8.17014C13.9195 7.84239 11.9759 6.33727 11.1231 5.67693C10.2297 6.24596 9.37405 6.87546 8.56261 7.5612L9.78272 11.5523C9.78272 11.5523 9.89536 12.2054 9.33277 11.975C8.84862 11.77 6.63189 10.9439 5.59636 10.5593C4.85097 11.4579 4.17044 12.411 3.56068 13.4111L5.92188 16.8562C5.92188 16.8562 6.22205 17.4712 5.62231 17.4325C5.11103 17.4034 2.77459 17.2861 1.66947 17.2311C1.29795 18.1835 0.986587 19.1601 0.737729 20.1536L3.97289 22.6589C3.97289 22.6589 4.46058 23.1203 3.89799 23.2739C3.38612 23.4203 1.1234 24.0758 0.0642785 24.383C0.0218193 24.9732 0 25.5646 0 26.1566C0 26.6143 0.0135634 27.0691 0.0383312 27.5208C1.01725 27.8377 3.43802 28.6177 3.97289 28.7701C4.53488 28.9624 4.04778 29.4232 4.04778 29.4232L0.659297 31.8318C0.918181 32.9269 1.25137 34.0027 1.65827 35.0494C2.75867 35.0034 5.10926 34.9 5.62231 34.842C6.22205 34.8039 5.92188 35.4189 5.92188 35.4189L3.55124 38.8766C4.16395 39.881 4.84743 40.8383 5.59695 41.7399C6.62541 41.3317 8.81147 40.4555 9.29503 40.2233C9.85703 39.9929 9.78213 40.6841 9.78213 40.6841L8.60271 44.7634C9.39351 45.4274 10.2256 46.0382 11.0937 46.5915C11.9511 45.9275 13.883 44.4321 14.3176 44.1055C14.767 43.7203 14.8796 44.4127 14.8796 44.4127L14.8147 48.5187C15.8674 48.9468 16.9483 49.2963 18.0499 49.5642C18.6596 48.6166 19.9464 46.6078 20.2023 46.1422C20.5396 45.6046 20.8392 46.219 20.8392 46.219L22.1584 50.1768C22.6031 50.2028 23.0501 50.2167 23.5006 50.2167Z" fill="#347EC0"/>
</g>
<path fill-rule="evenodd" clip-rule="evenodd" d="M24.4058 18.1672C24.4058 18.1672 20.0365 18.1283 20.0365 22.6136C20.0365 27.0989 24.1421 27.369 24.1421 27.369H25.4229C25.4229 27.369 26.6284 27.33 26.6663 28.1422C26.7416 29.4568 25.7625 29.4568 25.3849 29.4568H20.0359V33.2844H25.3849C25.3849 33.2844 30.6586 33.439 30.7718 28.2194C30.8471 23.8503 25.6113 23.5413 25.6113 23.5413C25.6113 23.5413 24.2173 23.5024 24.2173 22.4585C24.2173 22.4585 24.2932 21.8015 24.9706 21.8015H39.5104V18.1672H24.4058ZM15.365 21.2984L12.5776 27.021H15.365V21.2984ZM5.30713 33.1689L12.4271 18.1673H19.3579V33.2072H15.365V29.3023H11.5226L9.60173 33.2072L5.30713 33.1689ZM31.4118 27.4462H39.4729V23.7342H31.4118V27.4462ZM31.4118 33.2072H39.5103V29.3023H31.4118V33.2072Z" fill="#FEFEFE"/>
<path d="M56.048 24H59.024L59.804 22.464H65.204L66.032 24H68.996L64.22 15.312H60.752L56.048 24ZM62.48 17.328L64.208 20.592H60.8L62.48 17.328ZM69.943 20.904C69.943 23.064 71.059 24.096 73.507 24.096H77.323C79.771 24.096 80.887 23.064 80.887 20.904V15.312H78.223V20.328C78.223 21.432 77.827 21.864 76.735 21.864H74.095C73.003 21.864 72.607 21.432 72.607 20.328V15.312H69.943V20.904ZM82.0453 17.472H85.7893V24H88.4533V17.472H92.1973V15.312H82.0453V17.472ZM93.165 20.952C93.165 23.496 94.593 24.096 96.993 24.096H101.265C103.665 24.096 105.093 23.496 105.093 20.952V18.36C105.093 15.816 103.665 15.216 101.265 15.216H96.993C94.593 15.216 93.165 15.816 93.165 18.36V20.952ZM95.901 19.188C95.901 18.108 96.165 17.448 97.569 17.448H100.689C102.093 17.448 102.357 18.108 102.357 19.188V20.124C102.357 21.384 102.093 21.864 100.833 21.864H97.425C96.165 21.864 95.901 21.384 95.901 20.124V19.188ZM106.705 24H109.297V17.76H109.321L112.813 24H114.805L118.297 17.76H118.321V24H120.913V15.312H116.821L113.809 20.904L110.797 15.312H106.705V24ZM122.521 20.952C122.521 23.496 123.949 24.096 126.349 24.096H130.621C133.021 24.096 134.449 23.496 134.449 20.952V18.36C134.449 15.816 133.021 15.216 130.621 15.216H126.349C123.949 15.216 122.521 15.816 122.521 18.36V20.952ZM125.257 19.188C125.257 18.108 125.521 17.448 126.925 17.448H130.045C131.449 17.448 131.713 18.108 131.713 19.188V20.124C131.713 21.384 131.449 21.864 130.189 21.864H126.781C125.521 21.864 125.257 21.384 125.257 20.124V19.188ZM135.424 17.472H139.168V24H141.832V17.472H145.576V15.312H135.424V17.472ZM146.88 24H149.544V15.312H146.88V24ZM155.322 24H158.61L163.278 15.312H160.362L156.966 21.768L153.57 15.312H150.654L155.322 24ZM164.232 24H173.892V21.912H166.896V20.52H173.376V18.72H166.896V17.328H173.736V15.312H164.232V24ZM56.744 32.756C56.744 34.64 57.716 35.096 60.14 35.096H63.368C66.908 35.096 67.7 34.712 67.7 32.372C67.7 29.84 66.74 29.588 62.6 29.6C59.744 29.612 59.42 29.588 59.42 28.832C59.42 28.364 59.828 28.16 60.428 28.16H63.38C64.604 28.16 64.676 28.424 64.676 29.06H67.34V28.784C67.34 27.26 67.052 26.216 63.98 26.216H60.26C56.9 26.216 56.756 27.428 56.756 29C56.756 31.136 57.212 31.616 61.22 31.616C64.652 31.616 64.964 31.664 64.964 32.42C64.964 33.092 64.388 33.152 63.824 33.152H60.56C59.792 33.152 59.42 33.08 59.408 32.156H56.744V32.756ZM69.3453 35H79.0053V32.912H72.0093V31.52H78.4893V29.72H72.0093V28.328H78.8493V26.312H69.3453V35ZM83.2828 28.472H87.4468C88.2868 28.472 88.6708 28.616 88.6708 29.384V29.672C88.6708 30.296 88.4068 30.584 87.6868 30.584H83.2828V28.472ZM80.6188 35H83.2828V32.744H87.4708C88.2988 32.744 88.5628 33.044 88.5628 33.956V35H91.2268V33.524C91.2268 32.096 90.5668 31.748 89.7748 31.604V31.58C90.9988 31.292 91.2628 30.608 91.2628 29.444V28.892C91.2628 27.332 90.7108 26.312 88.6588 26.312H80.6188V35ZM96.8921 35H100.18L104.848 26.312H101.932L98.5361 32.768L95.1401 26.312H92.2241L96.8921 35ZM105.946 35H108.61V26.312H105.946V35ZM110.368 31.952C110.368 34.496 111.796 35.096 114.196 35.096H118.492C121.168 35.096 121.696 33.944 121.696 32.48V31.664H119.032C119.032 32.744 118.672 32.864 117.472 32.864H114.628C113.368 32.864 113.104 32.384 113.104 31.124V30.188C113.104 29.108 113.368 28.448 114.772 28.448H117.676C118.468 28.448 118.924 28.628 118.924 29.252V29.492H121.588C121.612 27.032 121.12 26.216 117.328 26.216H114.196C111.796 26.216 110.368 26.816 110.368 29.36V31.952ZM123.298 35H132.958V32.912H125.962V31.52H132.442V29.72H125.962V28.328H132.802V26.312H123.298V35ZM56.9 47H66.56V44.912H59.564V43.52H66.044V41.72H59.564V40.328H66.404V38.312H56.9V47ZM67.3574 47H70.9334L73.8014 43.844L76.6694 47H80.2454L75.9854 42.644L79.9454 38.312H76.5014L73.8014 41.348L71.1014 38.312H67.6574L71.6174 42.644L67.3574 47ZM81.0361 43.952C81.0361 46.496 82.4641 47.096 84.8641 47.096H89.1601C91.8361 47.096 92.3641 45.944 92.3641 44.48V43.664H89.7001C89.7001 44.744 89.3401 44.864 88.1401 44.864H85.2961C84.0361 44.864 83.7721 44.384 83.7721 43.124V42.188C83.7721 41.108 84.0361 40.448 85.4401 40.448H88.3441C89.1361 40.448 89.5921 40.628 89.5921 41.252V41.492H92.2561C92.2801 39.032 91.7881 38.216 87.9961 38.216H84.8641C82.4641 38.216 81.0361 38.816 81.0361 41.36V43.952ZM93.9664 47H103.626V44.912H96.6304V43.52H103.11V41.72H96.6304V40.328H103.47V38.312H93.9664V47ZM105.24 47H113.892V44.768H107.904V38.312H105.24V47ZM115.025 47H123.677V44.768H117.689V38.312H115.025V47ZM124.81 47H134.47V44.912H127.474V43.52H133.954V41.72H127.474V40.328H134.314V38.312H124.81V47ZM136.084 47H138.748V40.688H138.772L143.776 47H147.904V38.312H145.24V44.624H145.216L140.212 38.312H136.084V47ZM149.509 43.952C149.509 46.496 150.937 47.096 153.337 47.096H157.633C160.309 47.096 160.837 45.944 160.837 44.48V43.664H158.173C158.173 44.744 157.813 44.864 156.613 44.864H153.769C152.509 44.864 152.245 44.384 152.245 43.124V42.188C152.245 41.108 152.509 40.448 153.913 40.448H156.817C157.609 40.448 158.065 40.628 158.065 41.252V41.492H160.729C160.753 39.032 160.261 38.216 156.469 38.216H153.337C150.937 38.216 149.509 38.816 149.509 41.36V43.952ZM162.439 47H172.099V44.912H165.103V43.52H171.583V41.72H165.103V40.328H171.943V38.312H162.439V47Z" fill="#444444"/>
<path d="M62.8896 11H61.459L57.9482 5.31152H57.9092L57.9336 5.62891C57.9792 6.23438 58.002 6.78776 58.002 7.28906V11H56.9424V3.86133H58.3584L61.8594 9.52051H61.8887C61.8822 9.44564 61.8691 9.17383 61.8496 8.70508C61.8301 8.23307 61.8203 7.86523 61.8203 7.60156V3.86133H62.8896V11ZM68.0312 11L67.8018 10.248H67.7627C67.5023 10.5768 67.2402 10.8014 66.9766 10.9219C66.7129 11.0391 66.3743 11.0977 65.9609 11.0977C65.4303 11.0977 65.0153 10.9544 64.7158 10.668C64.4196 10.3815 64.2715 9.97624 64.2715 9.45215C64.2715 8.89551 64.4782 8.47559 64.8916 8.19238C65.305 7.90918 65.9349 7.75456 66.7812 7.72852L67.7139 7.69922V7.41113C67.7139 7.06608 67.6325 6.80892 67.4697 6.63965C67.3102 6.46712 67.0612 6.38086 66.7227 6.38086C66.446 6.38086 66.1807 6.42155 65.9268 6.50293C65.6729 6.58431 65.4287 6.68034 65.1943 6.79102L64.8232 5.9707C65.1162 5.81771 65.4368 5.70215 65.7852 5.62402C66.1335 5.54264 66.4622 5.50195 66.7715 5.50195C67.4583 5.50195 67.9759 5.65169 68.3242 5.95117C68.6758 6.25065 68.8516 6.72103 68.8516 7.3623V11H68.0312ZM66.3223 10.2188C66.7389 10.2188 67.0726 10.1032 67.3232 9.87207C67.5771 9.6377 67.7041 9.31055 67.7041 8.89062V8.42188L67.0107 8.45117C66.4704 8.4707 66.0765 8.56185 65.8291 8.72461C65.585 8.88411 65.4629 9.12988 65.4629 9.46191C65.4629 9.7028 65.5345 9.88997 65.6777 10.0234C65.821 10.1536 66.0358 10.2188 66.3223 10.2188ZM72.4648 10.1699C72.7448 10.1699 73.0247 10.126 73.3047 10.0381V10.9023C73.1777 10.9577 73.0133 11.0033 72.8115 11.0391C72.613 11.0781 72.4062 11.0977 72.1914 11.0977C71.1042 11.0977 70.5605 10.5247 70.5605 9.37891V6.46875H69.8232V5.96094L70.6143 5.54102L71.0049 4.39844H71.7129V5.59961H73.251V6.46875H71.7129V9.35938C71.7129 9.63607 71.7812 9.84115 71.918 9.97461C72.0579 10.1048 72.2402 10.1699 72.4648 10.1699ZM75.5361 11H74.3887V5.59961H75.5361V11ZM74.3203 4.16895C74.3203 3.96387 74.3757 3.80599 74.4863 3.69531C74.6003 3.58464 74.7614 3.5293 74.9697 3.5293C75.1715 3.5293 75.3278 3.58464 75.4385 3.69531C75.5524 3.80599 75.6094 3.96387 75.6094 4.16895C75.6094 4.36426 75.5524 4.51888 75.4385 4.63281C75.3278 4.74349 75.1715 4.79883 74.9697 4.79883C74.7614 4.79883 74.6003 4.74349 74.4863 4.63281C74.3757 4.51888 74.3203 4.36426 74.3203 4.16895ZM81.9717 8.29004C81.9717 9.1722 81.7454 9.86068 81.293 10.3555C80.8405 10.8503 80.2106 11.0977 79.4033 11.0977C78.8988 11.0977 78.4528 10.9837 78.0654 10.7559C77.6781 10.528 77.3802 10.2008 77.1719 9.77441C76.9635 9.34798 76.8594 8.85319 76.8594 8.29004C76.8594 7.41439 77.084 6.73079 77.5332 6.23926C77.9824 5.74772 78.6156 5.50195 79.4326 5.50195C80.2139 5.50195 80.8324 5.75423 81.2881 6.25879C81.7438 6.76009 81.9717 7.43717 81.9717 8.29004ZM78.041 8.29004C78.041 9.53678 78.5016 10.1602 79.4229 10.1602C80.3343 10.1602 80.79 9.53678 80.79 8.29004C80.79 7.05632 80.3311 6.43945 79.4131 6.43945C78.9313 6.43945 78.5814 6.59896 78.3633 6.91797C78.1484 7.23698 78.041 7.69434 78.041 8.29004ZM88.0459 11H86.8936V7.67969C86.8936 7.26302 86.8089 6.95215 86.6396 6.74707C86.4736 6.54199 86.2083 6.43945 85.8438 6.43945C85.3587 6.43945 85.0039 6.58268 84.7793 6.86914C84.5547 7.1556 84.4424 7.63574 84.4424 8.30957V11H83.2949V5.59961H84.1934L84.3545 6.30762H84.4131C84.5758 6.05046 84.807 5.85189 85.1064 5.71191C85.4059 5.57194 85.738 5.50195 86.1025 5.50195C87.3981 5.50195 88.0459 6.16113 88.0459 7.47949V11ZM93.0215 11L92.792 10.248H92.7529C92.4925 10.5768 92.2305 10.8014 91.9668 10.9219C91.7031 11.0391 91.3646 11.0977 90.9512 11.0977C90.4206 11.0977 90.0055 10.9544 89.7061 10.668C89.4098 10.3815 89.2617 9.97624 89.2617 9.45215C89.2617 8.89551 89.4684 8.47559 89.8818 8.19238C90.2952 7.90918 90.9251 7.75456 91.7715 7.72852L92.7041 7.69922V7.41113C92.7041 7.06608 92.6227 6.80892 92.46 6.63965C92.3005 6.46712 92.0514 6.38086 91.7129 6.38086C91.4362 6.38086 91.1709 6.42155 90.917 6.50293C90.6631 6.58431 90.4189 6.68034 90.1846 6.79102L89.8135 5.9707C90.1064 5.81771 90.4271 5.70215 90.7754 5.62402C91.1237 5.54264 91.4525 5.50195 91.7617 5.50195C92.4486 5.50195 92.9661 5.65169 93.3145 5.95117C93.666 6.25065 93.8418 6.72103 93.8418 7.3623V11H93.0215ZM91.3125 10.2188C91.7292 10.2188 92.0628 10.1032 92.3135 9.87207C92.5674 9.6377 92.6943 9.31055 92.6943 8.89062V8.42188L92.001 8.45117C91.4606 8.4707 91.0667 8.56185 90.8193 8.72461C90.5752 8.88411 90.4531 9.12988 90.4531 9.46191C90.4531 9.7028 90.5247 9.88997 90.668 10.0234C90.8112 10.1536 91.026 10.2188 91.3125 10.2188ZM96.5908 11H95.4434V3.40234H96.5908V11ZM100.956 11V3.86133H102.123V11H100.956ZM108.642 11H107.489V7.67969C107.489 7.26302 107.405 6.95215 107.235 6.74707C107.069 6.54199 106.804 6.43945 106.439 6.43945C105.954 6.43945 105.6 6.58268 105.375 6.86914C105.15 7.1556 105.038 7.63574 105.038 8.30957V11H103.891V5.59961H104.789L104.95 6.30762H105.009C105.172 6.05046 105.403 5.85189 105.702 5.71191C106.002 5.57194 106.334 5.50195 106.698 5.50195C107.994 5.50195 108.642 6.16113 108.642 7.47949V11ZM113.866 9.46191C113.866 9.98926 113.674 10.3945 113.29 10.6777C112.906 10.9577 112.356 11.0977 111.64 11.0977C110.92 11.0977 110.342 10.9886 109.906 10.7705V9.7793C110.541 10.0723 111.132 10.2188 111.679 10.2188C112.385 10.2188 112.738 10.0055 112.738 9.5791C112.738 9.44238 112.699 9.32845 112.621 9.2373C112.543 9.14616 112.414 9.05176 112.235 8.9541C112.056 8.85645 111.807 8.74577 111.488 8.62207C110.867 8.38118 110.445 8.1403 110.224 7.89941C110.006 7.65853 109.896 7.34603 109.896 6.96191C109.896 6.49967 110.082 6.1416 110.453 5.8877C110.827 5.63053 111.335 5.50195 111.977 5.50195C112.611 5.50195 113.212 5.63053 113.778 5.8877L113.407 6.75195C112.825 6.51107 112.335 6.39062 111.938 6.39062C111.332 6.39062 111.029 6.56315 111.029 6.9082C111.029 7.07747 111.107 7.2207 111.264 7.33789C111.423 7.45508 111.768 7.61621 112.299 7.82129C112.745 7.99382 113.069 8.15169 113.271 8.29492C113.472 8.43815 113.622 8.60417 113.72 8.79297C113.817 8.97852 113.866 9.2015 113.866 9.46191ZM117.123 10.1699C117.403 10.1699 117.683 10.126 117.963 10.0381V10.9023C117.836 10.9577 117.672 11.0033 117.47 11.0391C117.271 11.0781 117.064 11.0977 116.85 11.0977C115.762 11.0977 115.219 10.5247 115.219 9.37891V6.46875H114.481V5.96094L115.272 5.54102L115.663 4.39844H116.371V5.59961H117.909V6.46875H116.371V9.35938C116.371 9.63607 116.439 9.84115 116.576 9.97461C116.716 10.1048 116.898 10.1699 117.123 10.1699ZM120.194 11H119.047V5.59961H120.194V11ZM118.979 4.16895C118.979 3.96387 119.034 3.80599 119.145 3.69531C119.258 3.58464 119.42 3.5293 119.628 3.5293C119.83 3.5293 119.986 3.58464 120.097 3.69531C120.211 3.80599 120.268 3.96387 120.268 4.16895C120.268 4.36426 120.211 4.51888 120.097 4.63281C119.986 4.74349 119.83 4.79883 119.628 4.79883C119.42 4.79883 119.258 4.74349 119.145 4.63281C119.034 4.51888 118.979 4.36426 118.979 4.16895ZM123.852 10.1699C124.132 10.1699 124.411 10.126 124.691 10.0381V10.9023C124.564 10.9577 124.4 11.0033 124.198 11.0391C124 11.0781 123.793 11.0977 123.578 11.0977C122.491 11.0977 121.947 10.5247 121.947 9.37891V6.46875H121.21V5.96094L122.001 5.54102L122.392 4.39844H123.1V5.59961H124.638V6.46875H123.1V9.35938C123.1 9.63607 123.168 9.84115 123.305 9.97461C123.445 10.1048 123.627 10.1699 123.852 10.1699ZM129.584 11L129.423 10.292H129.364C129.205 10.5426 128.977 10.7396 128.681 10.8828C128.388 11.026 128.052 11.0977 127.675 11.0977C127.021 11.0977 126.532 10.9349 126.21 10.6094C125.888 10.2839 125.727 9.79069 125.727 9.12988V5.59961H126.884V8.92969C126.884 9.3431 126.968 9.65397 127.138 9.8623C127.307 10.0674 127.572 10.1699 127.934 10.1699C128.415 10.1699 128.769 10.0267 128.993 9.74023C129.221 9.45052 129.335 8.96712 129.335 8.29004V5.59961H130.487V11H129.584ZM134.135 10.1699C134.415 10.1699 134.695 10.126 134.975 10.0381V10.9023C134.848 10.9577 134.683 11.0033 134.481 11.0391C134.283 11.0781 134.076 11.0977 133.861 11.0977C132.774 11.0977 132.23 10.5247 132.23 9.37891V6.46875H131.493V5.96094L132.284 5.54102L132.675 4.39844H133.383V5.59961H134.921V6.46875H133.383V9.35938C133.383 9.63607 133.451 9.84115 133.588 9.97461C133.728 10.1048 133.91 10.1699 134.135 10.1699ZM138.417 11.0977C137.577 11.0977 136.92 10.8535 136.444 10.3652C135.972 9.8737 135.736 9.19824 135.736 8.33887C135.736 7.45671 135.956 6.76335 136.396 6.25879C136.835 5.75423 137.439 5.50195 138.207 5.50195C138.92 5.50195 139.483 5.71842 139.896 6.15137C140.31 6.58431 140.517 7.18001 140.517 7.93848V8.55859H136.918C136.934 9.08268 137.076 9.48633 137.343 9.76953C137.61 10.0495 137.986 10.1895 138.471 10.1895C138.79 10.1895 139.086 10.1602 139.359 10.1016C139.636 10.0397 139.932 9.9388 140.248 9.79883V10.7314C139.968 10.8649 139.685 10.9593 139.398 11.0146C139.112 11.07 138.785 11.0977 138.417 11.0977ZM138.207 6.37109C137.842 6.37109 137.549 6.48665 137.328 6.71777C137.11 6.94889 136.98 7.28581 136.938 7.72852H139.389C139.382 7.28255 139.275 6.94564 139.066 6.71777C138.858 6.48665 138.572 6.37109 138.207 6.37109ZM147.128 6.46875H145.81V11H144.657V6.46875H143.769V5.93164L144.657 5.58008V5.22852C144.657 4.59049 144.807 4.11849 145.106 3.8125C145.406 3.50326 145.863 3.34863 146.479 3.34863C146.882 3.34863 147.279 3.41536 147.67 3.54883L147.367 4.41797C147.084 4.32682 146.814 4.28125 146.557 4.28125C146.296 4.28125 146.106 4.36263 145.985 4.52539C145.868 4.6849 145.81 4.92578 145.81 5.24805V5.59961H147.128V6.46875ZM152.841 8.29004C152.841 9.1722 152.615 9.86068 152.162 10.3555C151.71 10.8503 151.08 11.0977 150.272 11.0977C149.768 11.0977 149.322 10.9837 148.935 10.7559C148.547 10.528 148.249 10.2008 148.041 9.77441C147.833 9.34798 147.729 8.85319 147.729 8.29004C147.729 7.41439 147.953 6.73079 148.402 6.23926C148.852 5.74772 149.485 5.50195 150.302 5.50195C151.083 5.50195 151.701 5.75423 152.157 6.25879C152.613 6.76009 152.841 7.43717 152.841 8.29004ZM148.91 8.29004C148.91 9.53678 149.371 10.1602 150.292 10.1602C151.203 10.1602 151.659 9.53678 151.659 8.29004C151.659 7.05632 151.2 6.43945 150.282 6.43945C149.8 6.43945 149.451 6.59896 149.232 6.91797C149.018 7.23698 148.91 7.69434 148.91 8.29004ZM156.903 5.50195C157.134 5.50195 157.325 5.51823 157.475 5.55078L157.362 6.62012C157.2 6.58105 157.03 6.56152 156.854 6.56152C156.396 6.56152 156.023 6.71126 155.736 7.01074C155.453 7.31022 155.312 7.69922 155.312 8.17773V11H154.164V5.59961H155.062L155.214 6.55176H155.272C155.451 6.22949 155.684 5.97396 155.971 5.78516C156.26 5.59635 156.571 5.50195 156.903 5.50195Z" fill="#444444"/>
<path fill-rule="evenodd" clip-rule="evenodd" d="M43.7655 36.4546C43.8333 36.4546 43.9696 36.4771 43.9696 36.3641C43.9696 36.2729 43.879 36.2729 43.8109 36.2729H43.6521V36.4546H43.7655ZM44.0147 36.7728H43.9466L43.7882 36.5228H43.6519V36.7728H43.5837V36.2045H43.8331C43.8791 36.2045 43.9241 36.2274 43.9694 36.2503C44.0151 36.2732 44.0376 36.3186 44.0376 36.364C44.0376 36.4774 43.9466 36.5228 43.856 36.5228L44.0147 36.7728ZM44.219 36.5001C44.219 36.2501 44.0149 36.0458 43.788 36.0458C43.5378 36.0462 43.3352 36.2493 43.3344 36.5001C43.3344 36.7275 43.5385 36.9321 43.788 36.9321C44.0149 36.9321 44.219 36.7275 44.219 36.5001ZM43.2891 36.5C43.2891 36.2275 43.4928 36 43.7883 36C44.0605 36 44.2643 36.2275 44.2643 36.5C44.2643 36.7729 44.0605 37 43.7883 37C43.4928 37 43.2891 36.7729 43.2891 36.5Z" fill="#347EC0"/>
</svg>
