<?xml version="1.0" encoding="UTF-8"?><svg id="a" xmlns="http://www.w3.org/2000/svg" viewBox="0 0 300.48 72.61"><defs><style>.b,.c{fill:#036;}.d{fill:#ec6825;stroke:#ec6825;stroke-miterlimit:10;}.d,.c{stroke-width:.25px;}.c{stroke:#036;stroke-linecap:round;stroke-linejoin:round;}</style></defs><path class="d" d="m70.93,31.51c-.58-4.54-2.08-9-4.37-13.01-2.29-4.01-5.38-7.57-9-10.41-1.76-1.38-3.65-2.59-5.62-3.62-1.97-1.03-4.04-1.88-6.16-2.52-1.93-.65-3.91-1.13-5.91-1.44l-.75-.11c-.25-.03-.5-.07-.75-.09-.5-.04-1.01-.09-1.51-.13-.5-.02-1.01-.04-1.51-.06-.13,0-.25,0-.38-.01h-.38s-.75.02-.75.02c-2.01.05-4.01.28-5.96.67-1.95.4-3.86.97-5.7,1.68l-.69.27-.34.14-.34.15c-.45.2-.9.4-1.34.62l-1.31.68-.16.08-.16.09-.32.18-.63.37c-1.67,1.01-3.26,2.15-4.73,3.4-1.47,1.26-2.81,2.64-4.04,4.1l-.45.55-.22.28-.11.14-.11.14-.84,1.15-.1.14-.1.15-.2.3-.39.59-.19.3-.1.15-.09.15-.36.61c-.13.22-.26.44-.39.66-.07.11-.12.22-.18.34l-.18.34c-.12.23-.24.46-.35.68l-.18.34c-.06.12-.11.23-.16.35-.21.47-.43.94-.63,1.41-.19.48-.38.96-.57,1.45-.71,1.95-1.25,3.98-1.6,6.04-.71,4.13-.64,8.4.19,12.51.58,2.88,1.2,5.98,2.48,8.6.74,1.87,2.09,4.1,3.44,6.19,1.38,2.13,3.12,3.78,4.97,5.43.23.2.47.41.7.6.12.1.23.2.35.29.12.1.24.18.36.27.24.18.48.35.71.52.24.17.46.34.7.48.48.3.94.58,1.4.83.47.24.92.45,1.35.63.11.05.21.09.32.13,2.73,1.37,7.66,1.85,4.34.41-1.53-.64-2.41-1.27-2.67-1.43l-.39-.25c-.13-.08-.26-.16-.39-.25-.25-.18-.5-.36-.75-.54-.25-.18-.5-.36-.72-.56-.23-.19-.45-.39-.67-.59-.11-.1-.21-.2-.32-.3-.1-.1-.2-.21-.29-.32.1.05.21.09.31.14.11.04.22.09.33.13.22.09.45.18.68.28.23.1.46.2.69.3.23.1.47.2.69.31-.19-.14-.38-.29-.57-.45-.19-.16-.37-.33-.55-.49-.18-.16-.37-.31-.56-.46-.09-.07-.19-.14-.29-.21-.06-.04.37-.02.63-.03.46.32.92.64,1.4.93l.49.31.12.08.13.07.25.14c.33.19.67.38,1,.57,0,0-1.8-1.4-3.14-2.39-.46-.34-.89-.71-1.32-1.07.3.07.64.16,1.04.26-.41-.43-.88-.79-1.22-1.27.18.08.37.2.58.32.21.12.43.25.64.38.21.12.42.24.6.32.09.04.18.07.26.09.08.02.16.02.22.02-.07-.06-.14-.11-.21-.17-.07-.06-.13-.11-.2-.17-.13-.11-.27-.22-.4-.33-.13-.11-.27-.22-.4-.33l-.2-.16c-.07-.05-.13-.11-.19-.17-.22-.2-.45-.4-.67-.61-.08-.1-.16-.21-.25-.31-.22-.28-.44-.57-.69-.86-.06-.07-.12-.15-.19-.22-.06-.08-.12-.15-.18-.23-.12-.16-.25-.31-.37-.47-1.01-1.27-2.09-2.71-3.04-4.26-.96-1.54-1.8-3.19-2.42-4.78-.63-1.58-1.03-3.09-1.24-4.31-.57-3.33-.7-6.88-.25-10.38.44-3.49,1.46-6.94,2.91-10.06.63-1.33,1.37-2.62,2.23-3.82.87-1.19,1.84-2.32,2.9-3.36,1.07-1.03,2.23-1.97,3.46-2.82l.94-.62.97-.57.24-.14c.08-.05.17-.09.25-.13l.5-.26.5-.26c.17-.08.34-.16.51-.24l.52-.24c.17-.08.34-.16.52-.23.35-.14.71-.28,1.06-.42.72-.25,1.44-.51,2.18-.71,1.48-.42,3-.76,4.55-.95,1.55-.2,3.14-.29,4.75-.26,1.61.04,3.23.2,4.87.47l.65.12c.22.04.43.08.65.14.43.11.85.23,1.28.35.42.14.84.29,1.25.44.21.07.41.17.62.25l.61.27c1.61.74,4.71,2.43,7.02,4.15,4.03,3.01,12.13,12.35,10.82,23.73l-.4,5.56c-.1.67-.18,1.36-.18,1.67.18-.2.35-.46.51-.76.08-.15.16-.31.24-.48.08-.17.14-.34.21-.52.13-.36.27-.73.39-1.11.11-.37.22-.74.33-1.08-.08.29-.14.57-.19.85-.03.14-.04.28-.07.42-.03.14-.05.28-.08.42-.05.28-.09.57-.13.85-.02.15-.05.29-.07.43-.03.15-.06.29-.09.44-.04.18-.08.36-.12.54-.02.09-.04.18-.06.26-.03.09-.05.17-.08.26-.11.34-.22.66-.33.99-.03.08-.06.16-.09.24l-.1.24c-.06.16-.13.32-.19.48-.06.16-.13.32-.19.49-.03.08-.06.17-.09.25-.03.08-.07.16-.1.25.06-.03.12-.07.19-.12.06-.05.13-.12.19-.2.12-.16.25-.36.37-.57.13-.21.26-.43.38-.64.12-.21.23-.41.35-.56-.06.58-.3,1.12-.45,1.7,1.17-1.08,1.78-1.66,1.66-1.43-.05.1-.11.21-.17.33-.06.12-.13.24-.21.37-.16.26-.32.54-.48.83-.08.14-.16.29-.23.44-.08.15-.16.29-.23.43-.14.29-.26.57-.34.84.2-.07.41-.26.63-.51.11-.13.22-.27.32-.42.03-.04.05-.08.08-.11.02-.04.05-.08.07-.12.05-.08.1-.16.14-.24-.06.1-.11.2-.16.3-.05.1-.1.21-.15.32-.1.22-.19.44-.27.67-.09.23-.16.46-.25.69-.09.23-.18.45-.28.67.14-.21.3-.41.45-.61.15-.2.3-.4.45-.6.15-.2.31-.39.46-.57.08-.09.15-.19.23-.28.07-.09.14-.19.21-.28-.03.14-.06.28-.1.42-.04.14-.08.28-.13.42-.09.28-.19.56-.3.84-.1.28-.24.56-.36.83-.13.28-.26.55-.4.83-.06.14-.14.27-.21.41l-.22.41c-.15.27-.45.77-.73,1.26-.58.92-3.3,4.42-3.56,4.95,1.97-.18,6.16-6.03,6.24-6.12.07-.09.14-.18.22-.27.29-.37.58-.78.88-1.21.28-.44.55-.91.82-1.4.14-.24.26-.5.38-.76.12-.26.25-.53.37-.8.06-.14.13-.27.18-.41.05-.14.11-.28.16-.42.11-.28.21-.57.32-.86.82-2.34,1.33-4.97,1.5-7.5.17-2.53.04-4.97-.23-6.98Z"/><path class="c" d="m86.43,11.01c-1.8-1.79-3.91-3.43-6.07-4.65-.27-.15-.54-.3-.81-.44-.13-.07-.27-.14-.4-.21-.13-.07-.27-.13-.41-.19-.27-.12-.54-.24-.8-.36-.27-.11-.52-.23-.79-.32-.53-.19-1.04-.37-1.54-.51-.51-.13-.99-.24-1.46-.33-.12-.02-.23-.04-.34-.06-.12-.01-7.13-1.65-8.73-.49.54.23,4.89,1.06,5.94,1.37.53.18,1.09.36,1.38.47l.43.16c.14.05.29.1.43.17.28.12.57.24.85.36.28.13.56.24.82.39.27.14.53.29.78.44.13.07.25.15.37.23.12.08.24.17.35.25-.11-.02-.22-.05-.34-.07-.12-.02-.23-.04-.35-.06-.24-.04-.48-.08-.72-.13-.24-.04-.49-.1-.74-.15-.25-.05-.5-.1-.74-.16.21.1.43.21.65.32.22.11.43.24.64.36.21.12.43.23.64.33.11.05.22.09.32.14.11.05.21.09.32.13-.09-.03-.18-.06-.27-.08-.04-.01-.09-.03-.13-.04-.05-.01-.09-.02-.13-.03-.18-.04-.35-.08-.52-.1-.33-.05-.61-.05-.81.03.23.15.51.28.81.4.15.06.3.11.46.17.15.06.31.12.46.17.31.11.62.21.91.3.15.04.28.1.4.14.13.05.24.09.35.13.25.1-.59.06-2.19.02.49.33,1.03.58,1.46.98-.19-.04-.4-.11-.63-.19-.23-.08-.47-.16-.71-.23-.23-.08-.46-.14-.66-.18-.1-.02-.19-.03-.28-.03-.08,0-.16.01-.22.03.08.04.16.08.24.12.08.04.16.08.23.12.15.08.31.16.46.24.15.08.31.15.46.23l.23.11c.08.04.15.08.23.12.3.17.6.34.9.52.08.05.15.09.23.14.07.05.15.1.22.16.15.11.3.22.44.33.12.09.24.19.36.28.12.09.23.18.34.28.22.19.44.38.66.56.11.09.22.18.33.27.11.09.22.18.33.27.22.18.45.35.7.52-.31-.18-.63-.39-.96-.6-.33-.2-.69-.39-1.02-.58-.17-.09-.33-.18-.5-.25-.17-.07-.34-.14-.5-.2-.32-.12-.62-.2-.88-.23.21.24.72.7,1.24,1.14l3.96,3.92c8.49,7.68,8.56,20.05,7.52,24.97-.6,2.82-1.82,6.13-2.54,7.75l-.28.6c-.1.2-.18.4-.3.6-.21.39-.43.78-.65,1.16-.24.37-.48.74-.73,1.11-.12.19-.26.36-.39.53l-.41.52c-1.05,1.28-2.17,2.47-3.35,3.56-1.19,1.08-2.44,2.06-3.74,2.93-1.29.88-2.66,1.63-4.05,2.29-.69.34-1.4.62-2.11.9-.36.13-.72.25-1.08.38-.18.07-.36.12-.54.17l-.54.16c-.18.05-.36.11-.54.16l-.55.13-.55.13c-.09.02-.18.05-.27.06l-.28.05-1.11.21-1.11.15c-1.49.17-2.98.23-4.46.16-1.48-.09-2.95-.29-4.39-.62-1.44-.34-2.84-.82-4.2-1.4-3.15-1.38-6.19-3.3-8.82-5.64-2.64-2.33-4.88-5.08-6.65-7.97-.65-1.06-1.34-2.46-1.91-4.06-.58-1.6-1.03-3.39-1.33-5.19-.3-1.79-.44-3.59-.52-5.21,0-.2-.02-.4-.03-.6,0-.1-.01-.2-.02-.29,0-.1,0-.19,0-.29,0-.38-.03-.75-.05-1.11,0-.14-.01-.26-.02-.4.03-.3.06-.6.1-.9.01-.09.02-.17.03-.26l.05-.25c.03-.17.06-.34.09-.51.03-.17.06-.34.08-.52.01-.09.02-.17.04-.26.02-.09.03-.18.05-.26-.05.04-.11.09-.16.16-.05.07-.1.15-.14.24-.09.18-.17.4-.24.63-.08.23-.16.48-.23.71-.07.23-.14.45-.22.62-.06-.58.06-1.16.08-1.75-.24.34-.44.63-.61.88.09-.56.17-1.12.29-1.68.35-1.63.78-3.87.78-3.87-.13.36-.25.73-.38,1.09l-.1.27-.05.14-.04.14-.16.55c-.17.53-.31,1.08-.44,1.62-.21.16-.51.46-.5.39.02-.11.06-.23.08-.34.05-.23.09-.47.12-.71.03-.24.06-.49.09-.73.04-.24.08-.48.13-.71-.1.23-.2.46-.31.69-.11.23-.21.46-.32.68-.11.22-.22.44-.33.66-.05.11-.11.21-.16.32-.05.11-.1.21-.14.31,0-.14,0-.29,0-.43.01-.14.02-.29.04-.44.03-.29.07-.59.11-.89.04-.3.11-.59.18-.89.07-.3.14-.6.21-.9.03-.15.08-.3.12-.45l.13-.44c.09-.3.33-1.35,1.06-2.84,1.55-3.27-1.83.34-2.99,3.17-.05.1-.1.21-.15.31-.2.43-.4.88-.6,1.37-.18.49-.34,1.01-.5,1.54-.09.27-.14.55-.21.83-.06.28-.13.57-.19.86-.03.15-.06.29-.09.44-.02.15-.05.3-.07.45-.04.3-.09.61-.13.91-.3,2.46-.53,4.85-.15,7.36.36,2.46.82,5.04,1.49,6.93.77,2.81,2.35,5.55,3.81,8.1,2.08,3.64,4.86,6.9,8.11,9.53,1.62,1.32,3.37,2.49,5.19,3.48.46.24.92.48,1.38.71.47.22.94.43,1.41.64.12.05.23.11.35.16l.36.14c.24.09.48.19.72.28l.36.14c.12.05.24.09.36.13.24.08.49.16.73.24l.67.22.17.06.17.05.34.09.68.19.34.09.17.05.17.04,1.39.31.17.04.18.03.35.06.7.12c1.88.29,3.81.44,5.74.42,1.93-.03,3.87-.22,5.79-.56l.72-.14.36-.07.18-.04.18-.04,1.43-.35c.47-.13.94-.28,1.41-.42l.35-.11.35-.12.7-.25c1.85-.68,3.66-1.51,5.39-2.5,1.73-1,3.37-2.15,4.92-3.43l.58-.49.29-.24c.09-.08.18-.17.28-.26.37-.34.74-.69,1.1-1.04.35-.36.7-.73,1.05-1.09.18-.18.34-.38.51-.57l.5-.58c1.3-1.55,2.48-3.22,3.5-4.98,1.17-1.88,2.16-3.88,2.97-5.95.8-2.07,1.42-4.23,1.84-6.43.85-4.51.82-9.23-.1-13.76-.92-4.53-2.73-8.87-5.29-12.66-1.13-1.69-2.63-3.61-4.43-5.4Z"/><path class="b" d="m120.45,50.45c-2.29-1.39-4.11-3.27-5.46-5.64-1.35-2.37-2.03-4.95-2.03-7.76s.67-5.35,2.01-7.72c1.34-2.37,3.15-4.25,5.44-5.64,2.29-1.39,4.81-2.08,7.57-2.08,1.85,0,3.54.27,5.06.81,1.52.54,2.99,1.4,4.4,2.59.28.21.43.5.43.89,0,.21-.05.39-.15.56-.1.17-.24.29-.42.37-.05.18-.17.32-.35.42s-.37.15-.58.15c-.39,0-.71-.12-.96-.35-1-.9-2.1-1.56-3.28-1.97-1.18-.41-2.56-.62-4.13-.62-2.16,0-4.17.57-6.02,1.72-1.85,1.15-3.33,2.68-4.42,4.61-1.09,1.93-1.64,4.02-1.64,6.25s.54,4.4,1.62,6.33c1.08,1.93,2.55,3.46,4.4,4.59,1.85,1.13,3.87,1.7,6.06,1.7,2.81,0,5.34-.9,7.61-2.7.28-.21.57-.31.85-.31.39,0,.72.14,1,.41s.43.62.43,1.06c0,.41-.14.77-.43,1.08-2.42,2.21-5.57,3.32-9.46,3.32-2.73,0-5.24-.7-7.53-2.08Z"/><path class="b" d="m156.62,32.17c1.47.89,2.61,2.12,3.42,3.69.81,1.57,1.22,3.36,1.22,5.37,0,.41-.13.74-.39.98-.26.25-.59.37-1,.37h-15.6c.21,2.11,1.03,3.82,2.47,5.14,1.44,1.31,3.24,1.97,5.41,1.97.93,0,1.86-.16,2.8-.48.94-.32,1.69-.73,2.26-1.22.33-.26.68-.39,1.04-.39.28,0,.57.1.85.31.33.31.5.66.5,1.04,0,.33-.14.63-.42.89-.85.72-1.93,1.32-3.24,1.8-1.31.48-2.57.71-3.78.71-2.06,0-3.9-.46-5.52-1.37-1.62-.91-2.89-2.19-3.8-3.82-.91-1.63-1.37-3.48-1.37-5.54s.43-3.94,1.29-5.58c.86-1.63,2.06-2.91,3.59-3.82,1.53-.91,3.28-1.37,5.23-1.37s3.59.44,5.06,1.33Zm-9.92,3.15c-1.29,1.21-2.07,2.81-2.36,4.79h14.13c-.21-1.98-.93-3.58-2.16-4.79-1.23-1.21-2.82-1.81-4.75-1.81s-3.58.61-4.86,1.81Z"/><path class="b" d="m181.05,31.96c1.45.77,2.59,1.9,3.42,3.38.82,1.48,1.24,3.25,1.24,5.31v10.04c0,.41-.14.76-.43,1.04-.28.28-.63.42-1.04.42-.44,0-.8-.14-1.08-.42-.28-.28-.42-.63-.42-1.04v-10.04c0-2.29-.64-4.03-1.91-5.23-1.27-1.2-2.94-1.8-5-1.8-1.26,0-2.4.25-3.42.73-1.02.49-1.82,1.16-2.41,2.03-.59.86-.89,1.82-.89,2.88v11.43c0,.44-.13.79-.41,1.06s-.62.41-1.06.41-.8-.14-1.08-.41c-.28-.27-.43-.62-.43-1.06v-18.15c0-.44.14-.8.43-1.08.28-.28.64-.42,1.08-.42s.79.14,1.06.42.41.64.41,1.08v1.31c.85-.95,1.88-1.7,3.09-2.24,1.21-.54,2.52-.81,3.94-.81,1.83,0,3.47.39,4.92,1.16Z"/><path class="b" d="m202.22,49.6c.26.28.39.64.39,1.08,0,.41-.15.76-.46,1.04-.31.28-.7.42-1.16.42h-.81c-1.37,0-2.59-.33-3.67-.98-1.08-.66-1.92-1.54-2.53-2.66-.61-1.12-.91-2.39-.91-3.8v-10.31h-2.51c-.41,0-.74-.12-.98-.37-.24-.24-.37-.55-.37-.91,0-.39.12-.7.37-.95.24-.24.57-.37.98-.37h2.51v-5.98c0-.44.14-.8.41-1.08.27-.28.62-.42,1.06-.42s.8.14,1.08.42c.28.28.42.64.42,1.08v5.98h4.36c.41,0,.74.12.99.37.24.25.37.56.37.95,0,.36-.12.66-.37.91-.25.25-.57.37-.99.37h-4.36v10.31c0,1.31.39,2.39,1.16,3.22.77.84,1.76,1.25,2.97,1.25h1.04c.41,0,.75.14,1,.42Z"/><path class="b" d="m219.38,31.22c.63.28.95.68.95,1.2,0,.15-.01.27-.04.35-.1.36-.26.61-.48.73-.22.13-.52.19-.91.19-.23,0-.63-.03-1.2-.08-.21-.03-.52-.04-.93-.04-1.93,0-3.51.51-4.73,1.54-1.22,1.03-1.83,2.37-1.83,4.02v11.54c0,.46-.13.82-.39,1.08-.26.26-.62.39-1.08.39s-.82-.13-1.08-.39c-.26-.26-.39-.62-.39-1.08v-18.19c0-.46.13-.82.39-1.08.26-.26.62-.39,1.08-.39s.82.13,1.08.39c.26.26.39.62.39,1.08v1.7c.75-1.08,1.7-1.92,2.86-2.51,1.16-.59,2.41-.89,3.74-.89,1.08,0,1.94.14,2.57.42Z"/><path class="b" d="m225.21,26.4c-.4-.41-.6-.91-.6-1.51s.21-1.12.62-1.51c.41-.39.91-.58,1.51-.58s1.05.19,1.47.58c.41.39.62.89.62,1.51s-.21,1.09-.62,1.51c-.41.41-.91.62-1.51.62s-1.09-.21-1.49-.62Zm.44,25.33c-.28-.28-.43-.64-.43-1.08v-18.11c0-.44.14-.8.43-1.08.28-.28.64-.42,1.08-.42s.79.14,1.06.42.41.64.41,1.08v18.11c0,.44-.13.8-.41,1.08-.27.28-.62.42-1.06.42s-.8-.14-1.08-.42Z"/><path class="b" d="m238.67,50.94c-1.6-.94-2.85-2.23-3.76-3.86-.91-1.63-1.37-3.46-1.37-5.46s.44-3.91,1.31-5.54c.87-1.63,2.08-2.91,3.63-3.84,1.54-.93,3.28-1.39,5.21-1.39,3.22,0,5.83,1.24,7.84,3.71.21.23.31.5.31.81,0,.41-.22.77-.66,1.08-.23.15-.48.23-.73.23-.39,0-.76-.19-1.12-.58-.77-.85-1.62-1.49-2.55-1.91-.93-.42-1.96-.64-3.09-.64-1.42,0-2.68.34-3.78,1.02-1.11.68-1.96,1.64-2.57,2.88-.61,1.24-.91,2.63-.91,4.17s.32,2.89.97,4.11c.64,1.22,1.54,2.18,2.7,2.88,1.16.69,2.48,1.04,3.98,1.04,2.06,0,3.72-.55,4.98-1.66.33-.28.68-.42,1.04-.42.31,0,.59.1.85.31.36.31.54.66.54,1.04,0,.33-.13.62-.39.85-1.85,1.72-4.2,2.59-7.03,2.59-2.01,0-3.81-.47-5.41-1.41Z"/><path class="b" d="m257.3,26.4c-.4-.41-.6-.91-.6-1.51s.21-1.12.62-1.51c.41-.39.91-.58,1.51-.58s1.05.19,1.47.58c.41.39.62.89.62,1.51s-.21,1.09-.62,1.51c-.41.41-.91.62-1.51.62s-1.09-.21-1.49-.62Zm.44,25.33c-.28-.28-.43-.64-.43-1.08v-18.11c0-.44.14-.8.43-1.08.28-.28.64-.42,1.08-.42s.79.14,1.06.42.41.64.41,1.08v18.11c0,.44-.13.8-.41,1.08-.27.28-.62.42-1.06.42s-.8-.14-1.08-.42Z"/><path class="b" d="m278.01,49.6c.26.28.39.64.39,1.08,0,.41-.15.76-.46,1.04-.31.28-.7.42-1.16.42h-.81c-1.37,0-2.59-.33-3.67-.98-1.08-.66-1.92-1.54-2.53-2.66-.61-1.12-.91-2.39-.91-3.8v-10.31h-2.51c-.41,0-.74-.12-.98-.37-.24-.24-.37-.55-.37-.91,0-.39.12-.7.37-.95.24-.24.57-.37.98-.37h2.51v-5.98c0-.44.14-.8.41-1.08.27-.28.62-.42,1.06-.42s.8.14,1.08.42c.28.28.42.64.42,1.08v5.98h4.36c.41,0,.74.12.99.37.24.25.37.56.37.95,0,.36-.12.66-.37.91-.25.25-.57.37-.99.37h-4.36v10.31c0,1.31.39,2.39,1.16,3.22.77.84,1.76,1.25,2.97,1.25h1.04c.41,0,.75.14,1,.42Z"/><path class="b" d="m300.48,32.27c0,.23-.05.46-.15.7l-12.51,27.49c-.23.59-.61.89-1.12.89-.26,0-.49-.05-.7-.15-.59-.23-.89-.62-.89-1.16,0-.23.05-.46.15-.7l3.82-8.46v-.04l-8.61-17.84c-.1-.21-.15-.44-.15-.69,0-.54.28-.93.85-1.16.21-.1.44-.15.7-.15.54,0,.93.27,1.16.81l7.53,15.87,7.18-15.83c.26-.57.64-.85,1.16-.85.23,0,.46.05.7.15.59.23.89.6.89,1.12Z"/></svg>