<?xml version="1.0" encoding="UTF-8"?>
<svg id="Layer_1" xmlns="http://www.w3.org/2000/svg" version="1.1" viewBox="0 0 139 40">
  <!-- Generator: Adobe Illustrator 29.1.0, SVG Export Plug-In . SVG Version: 2.1.0 Build 142)  -->
  <path d="M105.8,8c-1.4-.6-3.5-1-5.7-1-4.8,0-7.7,2.6-7.7,5.7s2.2,4.4,5.2,5.5c3.2,1.1,4.1,2,4.1,3.4s-1.1,2.8-3.2,2.8-4.2-1.3-5.6-5l-1,.2.2,5.3c1.6.6,4.3,1.1,6.7,1.1,5.1,0,8.1-2.3,8.1-6.1s-1.3-3.9-4.6-5.2c-3.6-1.3-4.8-2.1-4.8-3.7s1.1-2.7,2.6-2.7c2.3,0,3.9,1.4,4.9,4.5l1-.2-.2-4.6M62.7,24.7c-.5,0-.9,0-1.4-.1-.1-1.7-.2-8.8-.2-14.9.6-.2,1.3-.3,1.9-.3,2.7,0,4.2,3,4.2,6.8,0,4.9-1.9,8.5-4.5,8.5M65.5,7.4c-1.7,0-3.1.4-4.5,1.1,0-3.9,0-7.2.2-8.5l-8.2,1.5v.7h.8c1.1.3,1.6.9,1.7,2.4.3,2.8.2,18.1,0,20.5,2.2.5,4.6.9,7,.9,6.5,0,10.5-3.9,10.5-10.1s-3.2-8.5-7.5-8.5M21.9,1H0v1l1.2.2c1.7.2,2.3,1.3,2.5,3.6.4,4.5.3,12.5,0,16.4-.2,2.3-.8,3.4-2.5,3.6l-1.2.2v1h14.1v-1l-1.5-.2c-1.7-.2-2.3-1.3-2.5-3.6-.1-1.6-.2-4.3-.3-7.4h2.9c1.9.2,2.7,1.6,3.2,3.7h1.1s0-8.8,0-8.8h-1.1c-.5,2.1-1.3,3.5-3.2,3.6h-2.9c0-4.1,0-8.1.3-10.5h4.3c3.4,0,5.2,2.1,6.3,5.9l1.3-.4V1"/>
  <path d="M28.4,8.2c-2.7,0-3.5,3.6-3.5,8.3s1.2,8.3,3.8,8.3,3.5-3.6,3.5-8.3-1.2-8.3-3.8-8.3M28.7,7c6.2,0,9.3,4.1,9.3,9.5s-3.5,9.5-9.7,9.5-9.3-4.1-9.3-9.5,3.5-9.5,9.7-9.5M79,14.4h6c0-2.6-.4-6.2-2.6-6.2s-3.4,3.4-3.5,6.2M73,16.7c0-5,3.4-9.7,10-9.7s8,3.7,8,8.6h-12c-.1,4.4,2.3,7.7,6.9,7.7s3.1-.5,4.3-1.3l.6.6c-1.3,1.7-4.1,3.4-7.8,3.4-5.8,0-9.9-3.8-9.9-9.3M55,7.6c-2.1-1.2-5.9-.7-7.8,3.7v-4.3c0,0-8.2,1.6-8.2,1.6v.7h.8c1.2.3,1.6.9,1.7,2.5.3,2.9.2,8.2,0,10.7-.1,1.5-.6,2.2-1.7,2.4h-.8v1.1h11.5v-1h-1.5c-1.2-.3-1.6-.9-1.7-2.5-.2-2.3-.3-6.9,0-9.9.6-.9,3.3-1.6,5.8,0l2-5M115.5,13.9l2.8,2.1-1.1-3.4,2.8-2.1h-3.4l-1.1-3.4-1.1,3.4h-3.4l2.8,2.1-1.1,3.4,2.8-2.1M135.6,10.4l-1.1-3.4-1.1,3.4h-3.4l2.8,2.1-1.1,3.4,2.8-2.1,2.8,2.1-1.1-3.4,2.8-2.1h-3.4M120.6,21.4l-1.1-3.4-1.1,3.4h-3.4l2.8,2.1-1.1,3.4,2.8-2.1,2.8,2.1-1.1-3.4,2.8-2.1h-3.4M126.2,6.6l2.8-2.1h-3.4l-1.1-3.4-1.1,3.4h-3.4l2.8,2.1-1.1,3.4,2.8-2.1,2.8,2.1-1.1-3.4M135,21.4h-3.4l-1.1-3.4-1.1,3.4h-3.4l2.8,2.1-1.1,3.4,2.8-2.1,2.8,2.1-1.1-3.4,2.8-2.1M8,34h-3.2v6h-1.5v-6H0v-1h8v1M14.6,36.6h2.8c.9,0,1.5-.6,1.5-1.3s-.8-1.3-1.6-1.3h-2.7v2.6h0ZM13,40v-7h4.4c1.8,0,3.1,1.2,3.1,2.3s-.8,1.8-2,2.1l2.4,2.7h-1.8l-2.2-2.4h-2.3v2.4h-1.6ZM30.5,34.2l-1.6,3h3.1l-1.5-3ZM26,40l3.9-7h1.2l3.9,7h-1.6l-1-1.9h-3.7l-1,1.9h-1.6ZM40.6,33l2.9,5.6,2.9-5.6h1.6l-3.8,7h-1.3l-3.9-7h1.6M61,39v1h-7v-7h6.9v1h-5.3v2h4.6v.9h-4.6v2.1h5.4M66,40v-7h1.6v6h5.4v1h-7M88.7,39c-.8.7-1.8,1-2.9,1-2.7,0-4.7-2-4.7-4s2.1-4,4.8-4,3.2.7,3.9,1.7l-1.2.7c-.5-.9-1.6-1.3-2.7-1.3-1.9,0-3.1,1.4-3.1,2.9s1.4,2.9,3.2,2.9,2-.4,2.8-1.2v-.8h-2.1v-.9h3.5v4h-1.3v-1M102.5,36.5v-3.5h1.5v3.5c0,1.9-1.1,3.5-4,3.5s-4-1.7-4-3.5v-3.5h1.5v3.5c0,1.3.6,2.5,2.5,2.5s2.5-1.2,2.5-2.5M110,40h1v-7h-1v7ZM121.4,34h-1.9v5h1.9c2,0,3.1-1.1,3.1-2.5s-1.1-2.5-3.1-2.5ZM118,40v-7h3.4c3.1,0,4.6,1.6,4.6,3.5s-1.8,3.5-4.6,3.5h-3.4ZM139,39v1h-7v-7h6.9v1h-5.3v2h4.6v.9h-4.6v2.1h5.4"/>
</svg>