<?xml version="1.0" encoding="UTF-8"?><svg id="a" xmlns="http://www.w3.org/2000/svg" viewBox="0 0 1309.18 1304.6"><defs><style>.b{fill:#17ab4b;}.c{fill:#0580c2;}</style></defs><path class="c" d="M1014.09,59.05c10.14,7.34,20.32,16.79,28.36,26.39,4.52,5.39,15.72,24.73,18.35,26.89,3.49,2.86,24.15,10.1,30.76,13.75,45.79,25.34,75.32,70.12,80.51,122.49,48.57,31.3,77.89,84.62,72.66,143.34,32.89,33.6,50.45,78.43,43.53,125.96-.69,4.76-5.08,16.75-4.72,20.21.25,2.47,5.95,9.55,7.49,12.52,25.83,50.05,24.66,102.45-7.26,149.52,38.28,53.89,31.48,132.27-17.32,177.06,27.74,75.17-19.8,153.65-91.73,179.59-1.99,59.79-45.26,106.57-98.96,127.59-4.65,1.82-18.31,4.74-20.93,6.57-1.36.96-4.62,6.95-6.37,8.88-19.83,21.8-45.6,39.33-73.97,48.28-9.33,2.94-25.38,4.18-32.72,7.28-4.72,1.99-16.36,13.37-21.92,17.08-64.74,43.32-145.27,41.26-212.01,3.33-11.42-6.49-31.55-17.64-33.35-31.65l.09-1172.95C714.95,1.35,811.05-16.47,882.19,15.46c3.84,1.72,18.07,10.65,19.94,10.88,2.83.35,8.87-1.06,12.93-.75,36.95,2.77,68.82,11.59,99.04,33.46ZM886.2,76.95c-3.29-2.44-15.59-9.48-19.79-11.71-44.66-23.71-107.04-16.93-140.52,22-.44,14.26-.45,28.62-.4,42.93.08,23.51-1.29,48.25,7.39,70.61,10.36,26.66,41.94,67.42,72.28,70.72,15.35,1.67,31.3-6.28,41.62,10.38,8.96,14.48.89,32.32-15.03,36.46-21.97,5.71-49.69-.41-69.23-11.19-13.4-7.4-24.76-17.78-35.49-28.51-1.51,2.52-1.44,6.58-1.51,9.49-4.5,181.98,2.58,365.08,1.1,547-.95,3.22-2.39,20.33.42,20.48,16.63-15.99,37.14-28.41,58.96-36.02,9.36-3.26,25.37-8.17,35.05-8.04,26.74.35,32.7,37.52,8.47,46.56-13.17,4.91-26.5,5.41-40.65,12.35-29.79,14.61-57.02,45.72-63.37,78.63,4.34,88.3-6.13,182.52,1.13,270.04.15,1.79-1.09,3.69-.99,5.08.21,3.21,13.7,10.12,17.04,11.79,47.08,23.51,105.92,24.89,148.82-7.98-19.93-21.44-26.65-49.75-22.67-78.61,2.88-20.9,13-56.38,41.28-45.84,28.95,10.79,5.33,41.76,5.34,60.56,0,15.8,10.22,38.55,28.6,38.52,15.36-.02,46.62-18.36,58.02-29,9.79-9.14,16.65-25.22,28.2-29.8,5.27-2.09,11.44-2.11,16.27-3.73,34.29-11.54,63.42-32.67,74.51-68.53,3.99-12.9.84-25.16,2.61-38.35,2.79-20.77,25.74-21.36,41.4-28.6,34.72-16.06,60.94-50.79,57.52-90.55-2.71-31.45-27.93-47.9-58.47-41.41-22.32,4.75-37.42,33.47-60.06,16.94-16.39-11.96-8.21-32.25,5.27-42.96,33.86-26.88,85.38-32.47,121.73-7.27,30.63-29.16,33.82-73.38,11.12-108.91-9.06-14.19-23.06-21.49-15.5-41.24,2.89-7.55,9.75-12.34,14.26-18.73,21.38-30.3,22.2-65.74,3.4-97.68-44.4,2.68-82.68,38.72-79.76,85.25.25,3.96,1.54,10.56,2.45,14.56,1.8,7.97,9.44,22.17,9.55,28.52.46,26.24-34.68,35.45-47.22,10.15-40.35-81.46,10.69-163.88,93.14-184.25,4.76-1.18,8.99,1.15,11.57-4.43,12.68-27.46-1.6-67.21-20.57-88.45-7.06-7.9-20.51-15.96-22.49-26.52-1.67-8.92,1.95-16.86,2.52-25.56,2.12-32.58-15.4-65.74-41.5-84.46-11.5-8.25-14.84-10.36-29.85-8.89-22,2.14-52.93,19.34-49.38,45.13,2.69,19.51,23,28.59,22.73,46.24-.34,21.96-26.91,29.74-42.62,15.14-38.62-35.88-37.76-96.65,3.67-130.08,17.47-14.1,39.65-22.02,61.98-23.56-5.89-34.96-33.13-64.02-65.5-77.01-7.56-3.03-17.92-4.57-24.43-8.57-9.24-5.66-14.03-22.05-20.64-31.36-13.33-18.78-37.83-36.31-60.43-41.06,27.82,72.27-30.67,151.36-108.53,144.02-17.05-1.61-26.96-18.26-20.16-34.23,7.85-18.45,27.62-11.79,43.09-14.91,43.85-8.85,60.89-74.47,24.29-101.57Z"/><path class="c" d="M741.2,521.56c13.35,14.14,36.06,13.07,53.69,16.81,27.26,5.79,50.45,16.04,65.14,40.86,10.88,18.4,31.98,70.61-2.95,75.42-28,3.86-26.51-21.31-33.22-39.26-13.7-36.69-49.9-27.68-80.98-38.02-32.6-10.85-60.42-44.04-63.08-78.92-1.44-18.91,12.7-31.43,31.24-26.25,19.62,5.48,16.62,35.01,30.16,49.34Z"/><polygon class="c" points="816.02 188.63 816.52 189.13 816.02 189.63 816.02 188.63"/><polygon class="c" points="1119.02 1069.63 1119.52 1070.13 1119.02 1070.63 1119.02 1069.63"/><path class="b" d="M627.17,1258.27c-3.18,3.2-13.09,9.43-17.36,12.14-68.96,43.71-153.73,47.15-222.19.62-4.61-3.13-17.37-15.02-20.83-16.17-5.13-1.7-14.42-1.89-20.46-3.54-27.81-7.57-54.76-21.4-75.81-41.19-3.79-3.57-14.87-18.42-16.7-19.56-4.18-2.58-22.47-6.91-29.64-10.1-49.41-21.93-87.46-68.6-90.13-123.87-72.39-26.97-117.6-103.08-91.72-179.35-48.23-46.26-55.22-122.55-16.96-177.32-30.23-44.15-33.51-97.51-9.37-145.36,1.66-3.3,9.17-13.2,9.56-15.52.67-4-5.5-25.66-6-32.96-2.96-43.35,15.33-83.64,44.77-114.19-4.87-57.76,23.63-113.06,72.96-142.54,5.16-59.49,39.97-103.38,92.23-129.27,4.89-2.42,15.45-5.08,18.94-8.06s11.24-17.99,15.57-23.43c28.37-35.68,73.64-58.24,119.03-61.97,7.32-.6,16.92,1.11,23.75-.25,4.03-.8,11.17-6.47,15.52-8.48,47.82-21.98,98.83-24.56,147.56-3.15,18.38,8.08,61.9,37.53,64.53,58.47l.16,1167.93c-.55,5.51-3.49,13.19-7.39,17.11ZM204.52,206.63h108c20.18-56.73,96.72-70.62,135.51-24.01,36.54,43.9,16.46,110.4-37.51,127.01v142h-117v182c74.82,21.47,75.97,127.82,1.93,151.51-1.45.84.07,1.69.07,1.99v156c0,.29-1.22.72-1,1.5h67c24.41-53.8,100.89-60.25,135.43-11.93,31.62,44.24,10.25,105.77-40.47,122.6l.17,191.7c.71,1.85,18.21,5.22,21.39,5.61,37.04,4.6,74.6-6.67,105.48-26.48v-492.5h-114.5c-.33,0-1.44-1.36-2.5-1v88h-48v-173c-47.13-15.16-68.98-68.21-46.17-112.67,27.53-53.65,105.2-56.85,137.18-5.85,27.83,44.38,6.56,102.98-43.01,118.51v38h117v-288.5l-1.5-1.5h-115.5v-47h117V87.13c-31.82-36.7-89.99-45.04-133.68-25.68-9.98,4.42-22.35,15.82-32.08,16.92-9.43,1.06-22.25-1.58-32.72-.72-33.07,2.73-67.76,22.44-85.94,50.06-7.39,11.23-10.22,26.06-24.31,30.69-27.84,6.9-55.33,23.39-70.27,48.23ZM413.11,252.25c26.94-42.26-42.32-71.68-55.87-28.4-11.49,36.7,38.11,56.26,55.87,28.4ZM188.52,254.63v15.5c0,11.34-22.15,20.86-30.31,26.69-27.94,19.95-45.67,52.25-42.67,87.29.47,5.5,3.09,11.49,3.06,17.02-.08,17.12-14.9,23.14-24.6,34.49-21.62,25.31-28.54,55.96-19.19,88.2.97,3.34,4.78,8.69,5.46,12.54,3.37,19.25-12.51,28.6-20.13,44.39-18.28,37.91-7.58,77.75,21.39,106.3l112.34.43c9.61-23.61,26.46-45.08,51.64-52.86v-229.5l1.5-1.5h116.5v-93.5c-26.11-9.4-45.23-29.17-53.67-55.54l-121.33.04ZM462.13,547.02c-34.16-25.38-71.61,25.21-38.53,50.02,34.4,25.8,70.01-26.63,38.53-50.02ZM268.32,677.9c-41.04,3.74-36.41,69.62,9.63,62.66,36.43-5.51,31.08-66.37-9.63-62.66ZM408.52,1221.63v-167c-28.08-7.94-49.86-33.15-54-62h-107v-206.5c-6.7-4.03-13.79-6.32-20.46-10.53-14.22-8.96-24.92-24.69-31.22-40l-133.19.16c-17.75,34.82-13.43,73.37,12.85,102.4,11.62,12.83,26.32,15.92,22.78,37.73-.92,5.68-5.2,11.5-7.04,16.96-15.76,46.95,8.56,90.78,51.26,111.31,11.92,5.73,31.24,8.16,38.45,18.55,7.56,10.88,3.25,17.31,3.51,28.46.91,38.41,30.17,70.18,64.09,83.94,14.79,6,31.67,5.74,41.93,18.07,19.8,23.8,29.93,36.66,61.59,46.41,11.71,3.61,28.42,3.89,37.96,8.04,7.11,3.1,11.32,10.94,18.48,14.02ZM409.1,1000.05c27.88,30.91,73.78-9.96,46.93-41.43-27.09-31.75-74.84,10.49-46.93,41.43Z"/><polygon class="b" points="353.02 1003.63 353.52 1004.13 353.02 1004.63 353.02 1003.63"/><path class="c" d="M1003.64,764.7c-18.69-18.58-47.26-18.01-69.03-5.38-4.99-7.12-6.26-17.11-7.25-25.62-2.41-20.58-1.36-44.89-.13-65.64,3.47-58.72,12.44-119.67,21.52-177.84,3.7-23.69,6.99-51,12.35-74.07,1.14-4.91,3.49-11.96,10.09-9.82,4.46,1.45,5.15,4.78,6.18,8.82,4.88,19.12,7.63,43.45,10.95,63.33,11.02,65.95,22.39,136.44,24.49,203.2.86,27.35,1.17,57.36-9.16,83.01Z"/><path class="c" d="M915.4,1002.41c16.68-18.05,18.81-49.46,15.03-72.75-6.37-39.24-32.73-71.81-21.06-113.65,12.9-46.26,66.59-59.93,100.01-25.9,72.21,73.54-7.27,189.97-89.71,211.82-1.29.34-2.99,1.09-4.27.48Z"/></svg>